<svg xmlns="http://www.w3.org/2000/svg" viewBox="0 0 323 26">
	<path d="M 0 0.623 L 6.872 0.623 L 18.067 20.254 L 29.224 0.625 L 36.064 0.625 L 36.064 25.304 L 31.538 25.304 L 31.538 5.08 L 20.174 25.303 L 15.923 25.303 L 4.558 5.08 L 4.558 25.303 L 0 25.303 Z M 40.457 12.948 C 40.457 5.082 46.682 0 56.445 0 C 66.209 0 72.401 5.118 72.401 12.948 C 72.401 20.778 66.176 26 56.445 26 C 46.715 26 40.457 20.848 40.457 12.948 Z M 56.445 22.035 C 63.418 22.035 67.705 18.311 67.705 12.948 C 67.705 7.586 63.455 3.932 56.445 3.932 C 49.436 3.932 45.185 7.622 45.185 12.948 C 45.185 18.274 49.44 22.035 56.445 22.035 Z M 76.451 12.948 C 76.451 5.082 82.676 0 92.44 0 C 102.203 0 108.395 5.118 108.395 12.948 C 108.395 20.778 102.17 26 92.439 26 C 82.709 26 76.451 20.848 76.451 12.948 Z M 92.443 22.035 C 99.416 22.035 103.703 18.311 103.703 12.948 C 103.703 7.586 99.452 3.932 92.443 3.932 C 85.433 3.932 81.183 7.622 81.183 12.948 C 81.183 18.274 85.433 22.035 92.443 22.035 Z M 112.791 0.623 L 119.493 0.623 L 137.729 21.09 L 137.729 0.623 L 142.255 0.623 L 142.255 25.303 L 135.586 25.303 L 117.349 4.836 L 117.349 25.303 L 112.791 25.303 Z M 145.83 0.623 L 150.728 0.623 L 162.093 22.24 L 173.422 0.623 L 178.287 0.623 L 165.256 25.303 L 158.861 25.303 Z M 187.576 0.623 L 193.36 0.623 L 206.662 25.303 L 201.797 25.303 L 198.836 19.663 L 182.064 19.663 L 179.103 25.303 L 174.205 25.303 Z M 197 16.186 L 190.468 3.689 L 183.9 16.186 Z M 210.406 0.623 L 214.965 0.623 L 214.965 21.334 L 233.1 21.334 L 233.1 25.303 L 210.406 25.303 Z M 237.08 0.623 L 241.638 0.623 L 241.638 21.334 L 259.774 21.334 L 259.774 25.303 L 237.08 25.303 Z M 263.758 0.623 L 287.507 0.623 L 287.507 4.207 L 268.319 4.207 L 268.319 11.271 L 286.827 11.271 L 286.827 14.614 L 268.319 14.614 L 268.319 21.679 L 287.507 21.679 L 287.507 25.299 L 263.758 25.299 Z M 304.654 16.985 L 291.012 0.623 L 296.727 0.623 L 306.935 13.12 L 317.175 0.623 L 322.822 0.623 L 309.212 16.985 L 309.212 25.303 L 304.654 25.303 Z" fill="white"></path>
</svg>